<svg width="26" height="30" viewBox="0 0 26 30" fill="none" xmlns="http://www.w3.org/2000/svg">
<mask id="mask0_13_12" style="mask-type:alpha" maskUnits="userSpaceOnUse" x="3" y="5" width="20" height="20">
<path d="M16.686 21.2906C15.7019 21.7969 14.7096 22.1124 13.7092 22.2372C12.7028 22.3501 11.7418 22.2747 10.8264 22.0109C9.92285 21.741 9.09788 21.3032 8.35148 20.6976C7.59898 20.0801 6.97876 19.2971 6.49081 18.3486C6.00285 17.4001 5.72952 16.4461 5.67079 15.4867C5.60597 14.5154 5.73239 13.5807 6.05005 12.6826C6.36772 11.7845 6.86816 10.9647 7.55138 10.2234C8.24036 9.46413 9.08875 8.82527 10.0965 8.30682C11.2703 7.70298 12.4203 7.35881 13.5464 7.27432C14.6724 7.18983 15.7269 7.3596 16.7097 7.78363L15.5119 10.9639C14.8472 10.721 14.2079 10.6151 13.594 10.646C12.9859 10.6589 12.3795 10.8209 11.7748 11.132C11.2413 11.4065 10.7979 11.7396 10.4446 12.1312C10.0913 12.5229 9.84286 12.9581 9.69927 13.4368C9.54959 13.9036 9.49866 14.4022 9.5465 14.9323C9.60008 15.4446 9.76716 15.9734 10.0477 16.5188C10.3161 17.0404 10.6461 17.4779 11.0378 17.8312C11.4413 18.1784 11.8796 18.4328 12.3525 18.5943C12.8194 18.744 13.312 18.798 13.8303 18.7563C14.3544 18.6966 14.8772 18.5325 15.3989 18.2642C15.9206 17.9958 16.3877 17.6505 16.8003 17.2284C17.2068 16.7943 17.5582 16.2387 17.8546 15.5615L21.1004 17.018C20.6513 17.8938 20.0285 18.7089 19.2321 19.4635C18.4358 20.218 17.587 20.8271 16.686 21.2906ZM17.7502 18.1567L15.3348 13.4615L18.4471 11.8604L21.1004 17.018L17.7502 18.1567Z" fill="white"/>
</mask>
<g mask="url(#mask0_13_12)">
<circle cx="13.6733" cy="15.2159" r="8.5" transform="rotate(-27.223 13.6733 15.2159)" fill="url(#paint0_linear_13_12)"/>
</g>
<defs>
<linearGradient id="paint0_linear_13_12" x1="13.6733" y1="6.71592" x2="13.6733" y2="23.7159" gradientUnits="userSpaceOnUse">
<stop stop-color="#988FFF"/>
<stop offset="1" stop-color="#6155ED"/>
</linearGradient>
</defs>
</svg>
